<?xml version="1.0" standalone="no"?>
<!DOCTYPE svg PUBLIC "-//W3C//DTD SVG 20010904//EN"
 "http://www.w3.org/TR/2001/REC-SVG-20010904/DTD/svg10.dtd">
<svg version="1.0" xmlns="http://www.w3.org/2000/svg"
 width="182.000000pt" height="196.000000pt" viewBox="0 0 182.000000 196.000000"
 preserveAspectRatio="xMidYMid meet">

<g transform="translate(0.000000,196.000000) scale(0.100000,-0.100000)"
fill="#000000" stroke="none">
<path d="M710 1589 c-41 -11 -95 -29 -120 -40 -74 -32 -166 -99 -177 -129 -6
-16 -26 -35 -49 -46 -30 -15 -38 -24 -37 -41 2 -14 -3 -23 -11 -23 -8 0 -24
-12 -35 -26 -16 -20 -18 -31 -10 -45 8 -16 6 -19 -11 -19 -47 0 -100 -179
-100 -335 0 -213 95 -409 262 -544 108 -88 280 -158 364 -148 27 3 41 1 38 -5
-4 -6 3 -7 17 -3 35 10 41 20 16 22 -45 3 -131 23 -191 43 -123 41 -224 116
-301 224 -58 82 -82 140 -101 245 -33 185 19 371 142 515 41 47 41 54 9 66
-14 5 -25 14 -25 20 0 6 5 8 12 4 6 -4 17 1 25 11 7 11 13 13 13 7 0 -17 16
-15 36 6 17 16 17 16 12 -5 -3 -13 -3 -23 1 -23 15 0 51 32 51 46 0 8 5 12 10
9 6 -3 41 6 78 21 79 32 163 54 211 54 31 0 33 2 26 28 -12 50 -54 132 -67
131 -7 0 -47 -9 -88 -20z"/>
<path d="M860 1606 c0 -18 63 -143 77 -153 9 -7 33 -13 52 -13 41 -1 128 -28
192 -60 223 -114 360 -372 328 -618 -4 -37 -13 -82 -20 -100 -13 -38 -14 -38
27 -46 29 -6 33 -4 42 24 6 17 9 37 6 44 -3 8 2 28 10 45 10 19 14 41 10 57
-4 15 1 47 11 79 16 47 17 62 7 135 -48 335 -319 589 -649 608 -51 2 -93 2
-93 -2z"/>
<path d="M644 1384 c-18 -14 -18 -14 6 -3 31 14 36 19 24 19 -6 0 -19 -7 -30
-16z"/>
<path d="M816 1333 c-3 -3 -6 -68 -6 -143 0 -121 3 -143 24 -196 13 -32 31
-60 38 -62 10 -2 25 19 41 56 24 54 27 71 27 181 0 136 -9 168 -40 149 -16
-10 -25 -9 -48 4 -16 10 -32 15 -36 11z"/>
<path d="M1035 1240 c-7 -12 49 -143 64 -148 16 -5 31 42 31 97 0 53 -7 66
-26 50 -9 -7 -19 -7 -33 0 -24 13 -28 14 -36 1z"/>
<path d="M630 1178 c0 -62 21 -118 44 -118 18 0 46 82 46 136 l0 42 -45 0 -45
-1 0 -59z"/>
<path d="M352 1061 c-10 -6 -5 -28 19 -87 17 -43 35 -84 39 -89 5 -6 8 -40 8
-76 -1 -70 5 -89 28 -89 19 0 34 41 34 91 l0 39 25 -16 c24 -16 25 -19 25
-139 0 -99 3 -125 16 -135 25 -21 59 20 60 73 3 146 5 154 38 122 10 -10 14
-33 14 -65 -1 -28 4 -56 12 -65 13 -16 16 -15 32 5 10 12 18 33 18 46 0 30 23
31 50 4 19 -19 20 -30 15 -118 l-5 -98 36 -57 c19 -31 40 -57 45 -57 4 0 24
24 44 52 35 52 35 54 35 159 0 101 1 108 23 122 15 10 27 31 33 59 8 37 13 43
37 46 l28 3 -26 -50 c-28 -54 -28 -98 1 -122 30 -25 61 60 32 89 -9 9 -2 20
28 47 36 34 38 37 21 49 -9 8 -15 20 -12 28 7 18 -11 68 -25 68 -6 0 -53 -25
-105 -55 -53 -30 -100 -55 -105 -55 -5 0 -40 19 -77 41 -66 41 -312 177 -391
218 -21 11 -44 16 -50 12z"/>
<path d="M1278 1005 c-58 -30 -109 -59 -112 -64 -8 -12 45 -121 58 -121 5 0
18 7 28 17 17 15 18 14 18 -40 0 -61 7 -87 22 -87 24 0 37 37 38 102 0 37 4
69 9 72 9 6 64 117 76 155 10 33 -18 26 -137 -34z"/>
<path d="M1140 695 c0 -16 6 -25 16 -25 11 0 14 5 10 16 -3 9 -6 20 -6 25 0 5
-4 9 -10 9 -5 0 -10 -11 -10 -25z"/>
<path d="M1143 620 c6 -47 34 -81 48 -59 15 24 10 64 -11 82 -33 28 -43 21
-37 -23z"/>
<path d="M1455 577 c-38 -54 -1 -102 42 -53 29 35 29 50 -2 64 -21 10 -27 8
-40 -11z"/>
<path d="M1393 471 c-10 -17 -8 -61 4 -61 2 0 13 5 24 10 20 11 27 40 9 40 -5
0 -10 7 -10 15 0 21 -13 19 -27 -4z"/>
<path d="M1210 286 c0 -9 5 -16 10 -16 6 0 10 4 10 9 0 6 -4 13 -10 16 -5 3
-10 -1 -10 -9z"/>
<path d="M1085 240 c-52 -25 -68 -28 -116 -23 -36 4 -59 2 -63 -6 -5 -7 7 -9
41 -6 35 4 42 3 28 -4 -41 -19 40 -12 106 10 65 21 89 35 89 50 0 15 -22 9
-85 -21z"/>
<path d="M1080 174 l-25 -14 30 6 c35 8 39 10 28 17 -5 3 -19 -1 -33 -9z"/>
</g>
</svg>
