<?xml version="1.0" encoding="UTF-8"?>
<!DOCTYPE svg PUBLIC "-//W3C//DTD SVG 1.1//EN" "http://www.w3.org/Graphics/SVG/1.1/DTD/svg11.dtd">
<svg xmlns="http://www.w3.org/2000/svg" version="1.1" width="24px" height="26px" style="shape-rendering:geometricPrecision; text-rendering:geometricPrecision; image-rendering:optimizeQuality; fill-rule:evenodd; clip-rule:evenodd" xmlns:xlink="http://www.w3.org/1999/xlink">
<g><path style="opacity:0.772" fill="#fefffe" d="M 10.5,-0.5 C 11.1667,-0.5 11.8333,-0.5 12.5,-0.5C 13.8098,1.14772 15.1431,2.81439 16.5,4.5C 15.1667,6.5 13.5,8.16667 11.5,9.5C 9.5,8.16667 7.83333,6.5 6.5,4.5C 7.85689,2.81439 9.19022,1.14772 10.5,-0.5 Z"/></g>
<g><path style="opacity:0.765" fill="#fefffe" d="M 23.5,11.5 C 23.5,14.8333 23.5,18.1667 23.5,21.5C 21.2463,22.3147 18.9129,22.9813 16.5,23.5C 15.2867,23.7472 14.62,24.4138 14.5,25.5C 12.5,25.5 10.5,25.5 8.5,25.5C 8.38002,24.4138 7.71335,23.7472 6.5,23.5C 4.08705,22.9813 1.75372,22.3147 -0.5,21.5C -0.5,18.1667 -0.5,14.8333 -0.5,11.5C 0.931117,11.1193 1.76445,10.1193 2,8.5C 5.26101,9.12987 8.42768,10.1299 11.5,11.5C 14.3732,10.1251 17.3732,9.12514 20.5,8.5C 21.1411,9.99346 22.1411,10.9935 23.5,11.5 Z M 10.5,21.5 C 7.24702,21.4378 4.24702,20.6044 1.5,19C 5.1421,17.9302 8.1421,18.7636 10.5,21.5 Z M 12.5,21.5 C 14.8579,18.7636 17.8579,17.9302 21.5,19C 18.753,20.6044 15.753,21.4378 12.5,21.5 Z"/></g>
</svg>
