<?xml version="1.0" encoding="UTF-8"?>
<!DOCTYPE svg PUBLIC "-//W3C//DTD SVG 1.1//EN" "http://www.w3.org/Graphics/SVG/1.1/DTD/svg11.dtd">
<svg xmlns="http://www.w3.org/2000/svg" version="1.1" width="34px" height="34px" style="shape-rendering:geometricPrecision; text-rendering:geometricPrecision; image-rendering:optimizeQuality; fill-rule:evenodd; clip-rule:evenodd" xmlns:xlink="http://www.w3.org/1999/xlink">
<g><path style="opacity:0.621" fill="#fefffe" d="M 6.5,-0.5 C 7.16667,-0.5 7.83333,-0.5 8.5,-0.5C 10.1667,0.833333 11.8333,0.833333 13.5,-0.5C 15.5,-0.5 17.5,-0.5 19.5,-0.5C 26.0778,1.74343 30.7445,6.07676 33.5,12.5C 33.5,15.1667 33.5,17.8333 33.5,20.5C 31.5658,26.7665 27.5658,31.0999 21.5,33.5C 18.1667,33.5 14.8333,33.5 11.5,33.5C 5.40726,31.0748 1.40726,26.7415 -0.5,20.5C -0.5,17.8333 -0.5,15.1667 -0.5,12.5C 2.58257,8.21195 4.91591,3.87862 6.5,-0.5 Z M 11.5,2.5 C 27.6694,1.88875 33.5027,9.22209 29,24.5C 28.7868,19.9101 28.1202,15.2434 27,10.5C 22.5622,5.01168 17.2289,3.67834 11,6.5C 10.805,5.1807 10.9717,3.84736 11.5,2.5 Z M 8.5,7.5 C 4.36992,12.2367 3.53659,17.57 6,23.5C 10.8663,28.5163 16.6997,29.8496 23.5,27.5C 25.3726,27.4823 25.7059,27.9823 24.5,29C 12.338,33.7516 4.6713,29.7516 1.5,17C 1.72479,12.9088 3.22479,9.40876 6,6.5C 6.67076,7.25244 7.5041,7.58577 8.5,7.5 Z M 12.5,7.5 C 13.5,7.5 14.5,7.5 15.5,7.5C 14.8677,12.3049 12.201,15.4716 7.5,17C 12.3333,17.8333 15.1667,20.6667 16,25.5C 17.5981,20.9014 20.7647,18.0681 25.5,17C 21.1924,15.3591 18.1924,12.3591 16.5,8C 23.7893,8.13374 27.1226,11.9671 26.5,19.5C 25.0695,19.4208 23.7362,19.7542 22.5,20.5C 21.7696,22.3413 21.1029,24.1746 20.5,26C 9.23479,27.3071 5.06812,22.4738 8,11.5C 9.39683,9.92975 10.8968,8.59641 12.5,7.5 Z M 15.5,14.5 C 17.9118,14.6941 18.9118,16.0274 18.5,18.5C 17.1667,18.5 15.8333,18.5 14.5,18.5C 14.4326,17.0413 14.7659,15.7079 15.5,14.5 Z"/></g>
</svg>
