<?xml version="1.0" encoding="UTF-8"?>
<!DOCTYPE svg PUBLIC "-//W3C//DTD SVG 1.1//EN" "http://www.w3.org/Graphics/SVG/1.1/DTD/svg11.dtd">
<svg xmlns="http://www.w3.org/2000/svg" version="1.1" width="20px" height="23px" style="shape-rendering:geometricPrecision; text-rendering:geometricPrecision; image-rendering:optimizeQuality; fill-rule:evenodd; clip-rule:evenodd" xmlns:xlink="http://www.w3.org/1999/xlink">
<g><path style="opacity:0.777" fill="#fefffe" d="M 7.5,-0.5 C 8.83333,-0.5 10.1667,-0.5 11.5,-0.5C 15.0217,2.08872 15.355,5.08872 12.5,8.5C 10.5,8.5 8.5,8.5 6.5,8.5C 3.6241,5.13233 3.95744,2.13233 7.5,-0.5 Z"/></g>
<g><path style="opacity:0.823" fill="#fefffe" d="M 6.5,8.5 C 8.5,11.1667 10.5,11.1667 12.5,8.5C 14.143,8.48015 15.4763,9.14682 16.5,10.5C 17.3589,12.9998 18.3589,15.3331 19.5,17.5C 19.5,18.5 19.5,19.5 19.5,20.5C 18.0048,20.9887 16.6715,21.6554 15.5,22.5C 14.8333,22.5 14.1667,22.5 13.5,22.5C 10.0583,19.0367 6.22493,18.7033 2,21.5C 1.09789,21.2568 0.264561,20.9234 -0.5,20.5C -0.5,19.5 -0.5,18.5 -0.5,17.5C 0.641067,15.3331 1.64107,12.9998 2.5,10.5C 3.5237,9.14682 4.85703,8.48015 6.5,8.5 Z M 6.5,8.5 C 8.5,8.5 10.5,8.5 12.5,8.5C 10.5,11.1667 8.5,11.1667 6.5,8.5 Z M 12.5,13.5 C 14.7602,14.2376 14.9269,15.2376 13,16.5C 11.2716,15.6477 11.105,14.6477 12.5,13.5 Z"/></g>
</svg>
